<svg xmlns="http://www.w3.org/2000/svg" viewBox="0 0 100 100" fill-rule="evenodd"><g class="t-group-origins"><path d="M76.88 49.92A1.5 1.5 0 0 0 75.5 49H58.23l10-40.62A1.5 1.5 0 0 0 65.7 7L23.44 49.44A1.5 1.5 0 0 0 24.5 52h17.27l-10 40.62A1.5 1.5 0 0 0 34.3 94l42.26-42.44a1.5 1.5 0 0 0 .32-1.64ZM36 88.09l9.16-37.23A1.5 1.5 0 0 0 43.69 49H28.11L64 12.91l-9.14 37.23A1.5 1.5 0 0 0 56.31 52h15.58Zm35.06-19.15a1.5 1.5 0 0 0-2.12 2.12l12 12a1.5 1.5 0 0 0 2.12-2.12ZM28 30.5a1.5 1.5 0 0 0 1.06-2.56l-12-12a1.5 1.5 0 0 0-2.12 2.12l12 12a1.5 1.5 0 0 0 1.06.44Z" stroke-width="0" stroke="#ffffff" fill="#ffffff" stroke-width-old="0"/><path d="M68.44 29.56a1.5 1.5 0 0 0 2.12 0l12-12a1.5 1.5 0 0 0-2.12-2.12l-12 12a1.5 1.5 0 0 0 0 2.12Zm-41 39.88-12 12a1.5 1.5 0 1 0 2.12 2.12l12-12a1.5 1.5 0 0 0-2.12-2.12ZM18.5 60a2.5 2.5 0 1 0 0 5 2.5 2.5 0 1 0 0-5zm-9-7a2.5 2.5 0 1 0 0 5 2.5 2.5 0 1 0 0-5zm80-13a2.5 2.5 0 1 0 0 5 2.5 2.5 0 1 0 0-5zm-58-25a2.5 2.5 0 1 0 0 5 2.5 2.5 0 1 0 0-5z" stroke-width="0" stroke="#ffffff" fill="#ffffff" stroke-width-old="0"/></g></svg>