<svg xmlns="http://www.w3.org/2000/svg" viewBox="0 0 100 100" fill-rule="evenodd"><g class="t-group-origins"><path d="m57.986 69.992 14.993-24.108 1.396-2.292h-.137a26.639 26.639 0 0 0 2.82-11.922c0-14.772-12.018-26.79-26.79-26.79-14.773 0-26.792 12.018-26.792 26.79 0 4.144.969 8.217 2.82 11.922h-.109l15.812 26.46c-11.22 1.587-18.599 6.2-18.599 11.797 0 6.935 11.785 12.366 26.829 12.366s26.829-5.432 26.829-12.366c0-5.624-7.723-10.341-19.072-11.857zM30.129 44.294a23.708 23.708 0 0 1-3.653-12.624c0-13.118 10.673-23.79 23.792-23.79 13.118 0 23.79 10.672 23.79 23.79 0 4.456-1.263 8.821-3.653 12.624l-1.413 2.298h.015L49.865 77.367l-18.39-30.775h.098l-1.444-2.298zm20.1 46.921c-14.043 0-23.829-4.937-23.829-9.366 0-4.02 7.37-7.808 17.282-8.981l6.133 10.263 6.419-10.322c10.071 1.091 17.824 4.975 17.824 9.04 0 4.43-9.787 9.366-23.829 9.366z" stroke-width="1" stroke="#ffffff" fill="#ffffff" stroke-width-old="0"></path><path d="M50.716 41.411c5.371 0 9.741-4.37 9.741-9.741s-4.37-9.741-9.741-9.741-9.741 4.37-9.741 9.741 4.37 9.741 9.741 9.741zm0-16.482a6.749 6.749 0 0 1 6.741 6.741c0 3.717-3.024 6.741-6.741 6.741s-6.741-3.024-6.741-6.741a6.749 6.749 0 0 1 6.741-6.741z" stroke-width="1" stroke="#ffffff" fill="#ffffff" stroke-width-old="0"></path></g></svg>
